<svg xmlns="http://www.w3.org/2000/svg" xmlns:xlink="http://www.w3.org/1999/xlink" viewBox="0 0 286.47 162.57"><defs><linearGradient id="a" spreadMethod="pad" gradientTransform="matrix(0 108.3 108.3 0 5000 2740.65)" gradientUnits="userSpaceOnUse" y2="0" x2="1" y1="0" x1="0"><stop stop-color="#fff" offset="0" stop-opacity=".25"/><stop offset="1"/></linearGradient><linearGradient x1="0" y1="0" x2="1" y2="0" gradientUnits="userSpaceOnUse" gradientTransform="rotate(90 1022.38 4011.55) scale(4332.13)" spreadMethod="pad" id="c"><stop offset="0" stop-color="#9a9a9a"/><stop offset=".13" stop-color="#9a9a9a"/><stop offset=".45" stop-color="#e2e2e2"/><stop offset="1" stop-color="#c5c5c5"/></linearGradient><linearGradient x1="0" y1="0" x2="1" y2="0" gradientUnits="userSpaceOnUse" gradientTransform="matrix(0 226.102 226.102 0 5032.92 7122.88)" spreadMethod="pad" id="e"><stop offset="0" stop-color="#404040"/><stop offset=".68" stop-color="#404040"/><stop offset="1" stop-color="#c5c5c5"/></linearGradient><linearGradient x1="0" y1="0" x2="1" y2="0" gradientUnits="userSpaceOnUse" gradientTransform="matrix(4060.26 0 0 -4060.26 939.74 2910.4)" spreadMethod="pad" id="g"><stop offset="0" stop-color="#929292"/><stop offset=".01" stop-color="#c1c1c1"/><stop offset=".04" stop-color="#9c9c9c"/><stop offset=".05" stop-color="#9c9c9c"/><stop offset=".06" stop-color="#9c9c9c"/><stop offset=".09" stop-color="#afafaf"/><stop offset="1" stop-color="#cfcfcf"/></linearGradient><linearGradient x1="0" y1="0" x2="1" y2="0" gradientUnits="userSpaceOnUse" gradientTransform="matrix(8120.51 0 0 -8120.51 939.74 2974.91)" spreadMethod="pad" id="i"><stop offset="0" stop-color="#f8f8f8"/><stop offset=".01" stop-color="#f8f8f8"/><stop offset=".06" stop-color="#d0d0d0"/><stop offset=".5" stop-color="#f8f8f8"/><stop offset=".87" stop-color="#d0d0d0"/><stop offset=".96" stop-color="#f1f1f1"/><stop offset="1" stop-color="#f1f1f1"/></linearGradient><linearGradient x1="0" y1="0" x2="1" y2="0" gradientUnits="userSpaceOnUse" gradientTransform="matrix(4060.26 0 0 -4060.26 5000 2910.4)" spreadMethod="pad" id="k"><stop offset="0" stop-color="#cfcfcf"/><stop offset=".91" stop-color="#afafaf"/><stop offset=".94" stop-color="#9c9c9c"/><stop offset=".95" stop-color="#9c9c9c"/><stop offset=".95" stop-color="#9c9c9c"/><stop offset=".99" stop-color="#c1c1c1"/><stop offset="1" stop-color="#929292"/></linearGradient><linearGradient x1="0" y1="0" x2="1" y2="0" gradientUnits="userSpaceOnUse" gradientTransform="matrix(4060.26 0 0 -4060.26 939.74 2914.03)" spreadMethod="pad" id="m"><stop offset="0" stop-color="#666"/><stop offset=".01" stop-color="#d5d5d5"/><stop offset=".04" stop-color="#707070"/><stop offset=".05" stop-color="#707070"/><stop offset=".06" stop-color="#707070"/><stop offset=".09" stop-color="#bcbcbc"/><stop offset="1" stop-color="#f1f1f1"/></linearGradient><linearGradient x1="0" y1="0" x2="1" y2="0" gradientUnits="userSpaceOnUse" gradientTransform="matrix(4060.26 0 0 -4060.26 5000 2914.03)" spreadMethod="pad" id="o"><stop offset="0" stop-color="#f1f1f1"/><stop offset=".91" stop-color="#bcbcbc"/><stop offset=".94" stop-color="#707070"/><stop offset=".95" stop-color="#707070"/><stop offset=".95" stop-color="#707070"/><stop offset=".99" stop-color="#d5d5d5"/><stop offset="1" stop-color="#666"/></linearGradient><linearGradient x1="0" y1="0" x2="1" y2="0" gradientUnits="userSpaceOnUse" gradientTransform="matrix(1155.82 0 0 -1155.82 4422.09 2930.9)" spreadMethod="pad" id="q"><stop offset="0" stop-color="#9f9f9f"/><stop offset=".04" stop-color="#acacac"/><stop offset=".51" stop-color="#e5e5e5"/><stop offset=".96" stop-color="#acacac"/><stop offset="1" stop-color="#9f9f9f"/></linearGradient><linearGradient x1="0" y1="0" x2="1" y2="0" gradientUnits="userSpaceOnUse" gradientTransform="matrix(0 108.3 108.3 0 5000 2740.65)" spreadMethod="pad" id="s"><stop offset="0" stop-color="#575757"/><stop offset=".74" stop-color="#b9b9b9"/><stop offset=".89" stop-color="#b9b9b9"/><stop offset="1" stop-color="#9f9f9f"/></linearGradient><linearGradient gradientUnits="userSpaceOnUse" y2="56.93" x2="219.57" y1="116.39" x1="160.11" id="u" xlink:href="#a"/><clipPath clipPathUnits="userSpaceOnUse" id="b"><path d="M8123.74 7320.7H1942.95c-110.76 0-200.57-88.58-200.57-197.82V2988.56h28.67v4162.63a168 168 0 005.41 42.2 168.16 168.16 0 0041.99 74.42 173.81 173.81 0 0042.41 32.06c3.63 1.95 7.35 3.77 11.14 5.46l.04.03c2.53 1.11 5.09 2.16 7.65 3.17l.04.03a173.33 173.33 0 0062.81 11.73h6180.79a172.6 172.6 0 0092.37-26.66c4.62-2.93 9.09-6.1 13.43-9.4l.04-.04c2.15-1.68 4.27-3.4 6.32-5.15l.03-.04a172.8 172.8 0 0017.43-17.19c26.08-29.66 41.86-68.35 41.86-110.62V2988.56h29.05v4146.75c-6.49 103.45-93.6 185.39-200.12 185.39z"/></clipPath><clipPath clipPathUnits="userSpaceOnUse" id="d"><path d="M1741.97 7151.16c0 109.25 89.81 197.82 200.57 197.82h6180.79c110.76 0 200.53-88.57 200.53-197.82v-15.84c-6.49 103.44-93.6 185.38-200.12 185.38H1942.95c-110.76 0-200.57-88.58-200.57-197.82z"/></clipPath><clipPath clipPathUnits="userSpaceOnUse" id="f"><path d="M5000 2848.96H939.74v122.89h3477.79H939.74v-115.63H5000v-7.26"/></clipPath><clipPath clipPathUnits="userSpaceOnUse" id="h"><path d="M9060.26 2971.85H5582.47v6.1h-4.52c0-2.05-.07-4.08-.2-6.1h-.03c.12 2.02.19 4.05.19 6.1H4417.53v-6.1H939.74v6.13h8120.52v-6.13"/></clipPath><clipPath clipPathUnits="userSpaceOnUse" id="j"><path d="M9060.26 2848.96H5000v27.95-20.69h4060.26v-7.26"/></clipPath><clipPath clipPathUnits="userSpaceOnUse" id="l"><path d="M5000 2856.22H939.74v115.63h3477.79v-.92a93.74 93.74 0 0129.6-68.44 93.84 93.84 0 0164.51-25.58H5000v-20.69"/></clipPath><clipPath clipPathUnits="userSpaceOnUse" id="n"><path d="M9060.26 2856.22H5000v20.69h488.36c52.01 0 94.11 42.09 94.11 94.02v.92h3477.79v-115.63m-3576.42 27.62H5000h483.8a93.75 93.75 0 0166.53 27.58 93.52 93.52 0 0127.39 60.43h.03a93.46 93.46 0 00-27.38-60.43 93.73 93.73 0 00-66.53-27.58"/></clipPath><clipPath clipPathUnits="userSpaceOnUse" id="p"><path d="M5483.8 2883.84h-967.64a93.8 93.8 0 00-72.07 33.68 93.73 93.73 0 00-21.96 60.43h-.04 1155.82a93.52 93.52 0 00-27.58-66.53 93.75 93.75 0 00-66.53-27.58"/></clipPath><clipPath clipPathUnits="userSpaceOnUse" id="r"><path d="M939.74 2848.96c285.51-71.79 582.87-108.31 881.95-108.31h6356.62c299.08 0 596.44 36.52 881.95 108.31H5000z"/></clipPath><clipPath clipPathUnits="userSpaceOnUse" id="t"><path d="M8159.82 3204.37H1906v3869.48h6253.82z"/></clipPath></defs><g clip-path="url(#b)" transform="matrix(.03528 0 0 -.03528 -33.15 259.25)"><path d="M8123.74 7320.7H1942.95c-110.76 0-200.57-88.58-200.57-197.82V2988.56h28.67v4162.63a168 168 0 005.41 42.2 168.16 168.16 0 0041.99 74.42 173.81 173.81 0 0042.41 32.06c3.63 1.95 7.35 3.77 11.14 5.46l.04.03c2.53 1.11 5.09 2.16 7.65 3.17l.04.03a173.33 173.33 0 0062.81 11.73h6180.79a172.6 172.6 0 0092.37-26.66c4.62-2.93 9.09-6.1 13.43-9.4l.04-.04c2.15-1.68 4.27-3.4 6.32-5.15l.03-.04a172.8 172.8 0 0017.43-17.19c26.08-29.66 41.86-68.35 41.86-110.62V2988.56h29.05v4146.75c-6.49 103.45-93.6 185.39-200.12 185.39" fill="url(#c)"/></g><g clip-path="url(#d)" transform="matrix(.03528 0 0 -.03528 -33.15 259.25)"><path d="M1741.97 7151.16c0 109.25 89.81 197.82 200.57 197.82h6180.79c110.76 0 200.53-88.57 200.53-197.82v-15.84c-6.49 103.44-93.6 185.38-200.12 185.38H1942.95c-110.76 0-200.57-88.58-200.57-197.82l-.41 28.28" fill="url(#e)"/></g><path d="M259.47 149.74v4.08H29.33v-4.08h230.14m0-142.74v142.74H29.33V7c0-3.3 2.71-6 6.05-6h218.04c3.34 0 6.05 2.7 6.05 6m1.03 146.82v.37H28.32v-.37H260.5"/><g clip-path="url(#f)" transform="matrix(.03528 0 0 -.03528 -33.15 259.25)"><path d="M5000 2848.96H939.74v122.89h3477.79H939.74v-115.63H5000v-7.26" fill="url(#g)"/></g><g clip-path="url(#h)" transform="matrix(.03528 0 0 -.03528 -33.15 259.25)"><path d="M9060.26 2971.85H5582.47v6.1h-4.52c0-2.05-.07-4.08-.2-6.1h-.03c.12 2.02.19 4.05.19 6.1H4417.53v-6.1H939.74v6.13h8120.52v-6.13" fill="url(#i)"/></g><g clip-path="url(#j)" transform="matrix(.03528 0 0 -.03528 -33.15 259.25)"><path d="M9060.26 2848.96H5000v27.95-20.69h4060.26v-7.26" fill="url(#k)"/></g><g clip-path="url(#l)" transform="matrix(.03528 0 0 -.03528 -33.15 259.25)"><path d="M5000 2856.22H939.74v115.63h3477.79v-.92a93.74 93.74 0 0129.6-68.44 93.84 93.84 0 0164.51-25.58H5000v-20.69" fill="url(#m)"/></g><g clip-path="url(#n)" transform="matrix(.03528 0 0 -.03528 -33.15 259.25)"><path d="M9060.26 2856.22H5000v20.69h488.36c52.01 0 94.11 42.09 94.11 94.02v.92h3477.79v-115.63m-3576.42 27.62H5000h483.8a93.75 93.75 0 0166.53 27.58 93.52 93.52 0 0127.39 60.43h.03a93.46 93.46 0 00-27.38-60.43 93.73 93.73 0 00-66.53-27.58" fill="url(#o)"/></g><g clip-path="url(#p)" transform="matrix(.03528 0 0 -.03528 -33.15 259.25)"><path d="M5483.8 2883.84h-967.64a93.8 93.8 0 00-72.07 33.68 93.73 93.73 0 00-21.96 60.43h-.04 1155.82a93.52 93.52 0 00-27.58-66.53 93.75 93.75 0 00-66.53-27.58" fill="url(#q)"/></g><g clip-path="url(#r)" transform="matrix(.03528 0 0 -.03528 -33.15 259.25)"><path d="M939.74 2848.96c285.51-71.79 582.87-108.31 881.95-108.31h6356.62c299.08 0 596.44 36.52 881.95 108.31H939.74" fill="url(#s)"/></g><g clip-path="url(#t)" transform="matrix(.03528 0 0 -.03528 -33.15 259.25)" fill="#282922"><path d="M8159.82 3204.37H1906v3869.48h6253.82V3204.37"/></g><path fill="#1e1f1c" paint-order="markers fill stroke" d="M34.08 9.7H87.5v136.22H34.1z"/><path fill="#fff" fill-opacity=".19" paint-order="markers fill stroke" d="M38.22 13.9h27.8v4.28h-27.8zM38.22 20.3h33.41v4.27h-33.4zM38.22 26.68H58v4.28H38.22zM38.22 33.08h30.2v4.28h-30.2zM38.22 39.47h27.8v4.28h-27.8z"/><path fill="red" fill-opacity=".53" paint-order="markers fill stroke" d="M92.47 13.9h11.5v4.28h-11.5z"/><path fill="#33f" fill-opacity=".6" paint-order="markers fill stroke" d="M106.08 13.9h27.8v4.28h-27.8z"/><path fill="#fff" fill-opacity=".5" paint-order="markers fill stroke" d="M99.98 26.68h11.5v4.28h-11.5z"/><path fill="#fffffc" fill-opacity=".79" paint-order="markers fill stroke" d="M113.6 26.68h27.8v4.28h-27.8z"/><path fill="#fff" fill-opacity=".5" paint-order="markers fill stroke" d="M99.98 33.08h11.5v4.28h-11.5z"/><path fill="#fffffc" fill-opacity=".79" paint-order="markers fill stroke" d="M113.6 33.08h18.16v4.28H113.6z"/><path fill="#fff" fill-opacity=".5" paint-order="markers fill stroke" d="M99.98 39.47h11.5v4.28h-11.5z"/><path fill="#fffffc" fill-opacity=".79" paint-order="markers fill stroke" d="M113.6 39.47h42.22v4.28H113.6z"/><path fill="#fff" fill-opacity=".5" paint-order="markers fill stroke" d="M99.98 45.86h11.5v4.28h-11.5z"/><path fill="#fffffc" fill-opacity=".79" paint-order="markers fill stroke" d="M113.6 45.86h24.85v4.28H113.6z"/><path fill="red" fill-opacity=".53" paint-order="markers fill stroke" d="M92.47 58.78h7.22v4.28h-7.22z"/><path fill="#33f" fill-opacity=".6" paint-order="markers fill stroke" d="M101.8 58.78h31.81v4.28h-31.8z"/><path fill="#fff" fill-opacity=".5" paint-order="markers fill stroke" d="M99.98 71.18h11.5v4.28h-11.5z"/><path fill="#fffffc" fill-opacity=".79" paint-order="markers fill stroke" d="M113.6 71.18h27.8v4.28h-27.8z"/><path fill="#fff" fill-opacity=".5" paint-order="markers fill stroke" d="M99.98 77.57h11.5v4.28h-11.5z"/><path fill="#fffffc" fill-opacity=".79" paint-order="markers fill stroke" d="M113.6 77.57h18.16v4.28H113.6z"/><path fill="#fff" fill-opacity=".5" paint-order="markers fill stroke" d="M99.98 83.96h11.5v4.28h-11.5z"/><path fill="#fffffc" fill-opacity=".79" paint-order="markers fill stroke" d="M113.6 83.96h42.22v4.28H113.6z"/><path fill="#fff" fill-opacity=".5" paint-order="markers fill stroke" d="M99.98 90.35h11.5v4.28h-11.5z"/><path fill="#fffffc" fill-opacity=".79" paint-order="markers fill stroke" d="M113.6 90.35h27.8v4.28h-27.8z"/><path fill="#fff" fill-opacity=".5" paint-order="markers fill stroke" d="M99.98 96.75h11.5v4.28h-11.5z"/><path fill="#fffffc" fill-opacity=".79" paint-order="markers fill stroke" d="M113.6 96.75h18.16v4.28H113.6z"/><path fill="#fff" fill-opacity=".5" paint-order="markers fill stroke" d="M99.98 103.14h11.5v4.28h-11.5z"/><path fill="#fffffc" fill-opacity=".79" paint-order="markers fill stroke" d="M113.6 103.14h42.22v4.28H113.6z"/><path d="M219.57 56.93l-114.39-.08 114 113.99.39-113.9" style="mix-blend-mode:normal" opacity=".32" fill="url(#u)" transform="translate(35.13 -47.23)"/><path d="M191.42 77.1c0 .92-64.1 37.92-64.88 37.47-.79-.46-.79-74.47 0-74.92.79-.46 64.88 36.55 64.88 37.46z" fill="#f28024" fill-opacity=".87" stroke="#fff" stroke-width="1.46" stroke-linejoin="round" stroke-opacity=".87" paint-order="markers fill stroke"/></svg>