<svg id="docker" viewBox="0 -5 256 225" xmlns="http://www.w3.org/2000/svg" aria-labelledby="docker-title"><style/><g fill="none" fill-rule="evenodd"><path id="docker-text" d="M38.6 174v-16.4c0-2.1 1.4-3.9 3.6-3.9h.6c2.2 0 3.6 1.8 3.6 4V192c0 8.4-4.2 15-11.4 19.3a21.4 21.4 0 01-11 3h-1.5c-8.4 0-15-4.2-19.3-11.4a21.3 21.3 0 01-3-11v-1.5c0-8.4 4.1-15 11.4-19.3a21.3 21.3 0 0110.9-3H24c5.7 0 10.5 2.2 14.6 5.8zM8 191.3c0 6 3 10.6 8.3 13.5 2.1 1.2 4.5 1.8 7 1.8a15 15 0 0013.3-7.8 14.8 14.8 0 00-4.7-20 14.5 14.5 0 00-8.5-2.8c-6.5 0-11.2 3.2-14 9-1 2-1.4 4.1-1.4 6.3zm65.3-23.1h1.1a22 22 0 0120.2 12.2c1.7 3.1 2.6 6.5 2.6 10.1v1.6c0 8.4-4.1 15-11.4 19.3-3.3 2-7 3-11 3h-1.5c-8.4 0-15-4.2-19.3-11.4a21.3 21.3 0 01-3-11v-1.5c0-8.4 4.2-15 11.4-19.3 3.3-2 7-3 11-3zm-14.5 23.1a15 15 0 007.8 13.3c2.4 1.4 5 2 7.7 2 5.8 0 10-2.9 13-7.8a14.8 14.8 0 00-5-20.3A14.4 14.4 0 0074 176c-6.5 0-11.1 3.2-14 9-.9 2-1.3 4.1-1.3 6.3zm70.6-14.7c-1.1-.6-3.3-.8-4.6-.8-6.5-.2-11.2 3.4-14 9.1-.9 2-1.3 4-1.3 6.2 0 6.7 3.5 11.3 9.4 14.2 2.2 1 5 1.2 7.3 1.2 2.1 0 5-1.3 7-2.2l.2-.1h1.6c1.8.4 3.1 1.5 3.1 3.4v.8c0 4.7-8.6 5.8-11.9 6a22 22 0 01-23.6-16.7 20 20 0 01-.8-5.8v-1.5c0-8.4 4.1-15 11.3-19.4 3.4-2 7.1-3 11-3h1.5c4.2 0 8 1.2 11.4 3.5l.3.2.1.3c.4.6.7 1.4.7 2v.8c0 2-1.5 3-3.3 3.4h-.6c-1.1 0-3.7-1.1-4.8-1.6zm25.2 5.2l9-9c.9-.8 4.1-4.3 5.4-4.3h1.5c1.8.4 3.1 1.5 3.1 3.4v.8c0 1.3-1.5 2.8-2.3 3.7l-5.5 5.5-9.4 9.5 12 12.2a313.3 313.3 0 013.4 3.4c.4.4 1 .9 1.3 1.5.3.5.5 1 .5 1.7v1c-.5 1.8-1.6 3.2-3.5 3.2h-.7c-1.2 0-2.7-1.5-3.6-2.3l-5.3-5.2-6-5.9v9.4c0 2.1-1.3 3.8-3.5 3.8h-.6c-2.2 0-3.6-1.7-3.6-3.8v-52.6c0-2.2 1.4-3.9 3.6-3.9h.6c2.2 0 3.6 1.7 3.6 3.9v24zm96.5-13.3h.8c2.3 0 3.9 1.6 3.9 3.9 0 3.2-3 4-5.7 4-3.5 0-6.8 2.1-9.2 4.5-3 3-4.3 6.7-4.3 10.9v18.7c0 2.2-1.4 3.9-3.6 3.9h-.6c-2.3 0-3.6-1.7-3.6-3.9v-19.8c0-7.6 3.7-13.9 9.9-18.2 3.7-2.6 8-4 12.4-4zm-55 37.2c2.8 1 6 .8 8.9.3 1.5-.6 5.3-2.3 6.6-2h.3l.2.1c.8.4 1.6 1 2 1.9 1 2 .6 4-1.4 5.2l-.7.4a22.1 22.1 0 01-22.5-.3 20.9 20.9 0 01-8.1-8.2l-.5-.8a22 22 0 011.3-24.5c1.8-2.7 4.2-4.8 7-6.4l1-.6c7-4 14.4-3.7 21.5-.2a21 21 0 019 8.4l.4.6c1.6 2.7-.4 5-2.5 6.7-2.4 1.8-4.8 4-7.1 6L196 205.8zm-6.7-4.7l17.2-14.8 6.1-5.2c-1.6-2-4.2-3.4-6.4-4.3a14.6 14.6 0 00-13 1.3c-5.3 3-7.6 8-7.4 14.1a13.6 13.6 0 003.5 9z" fill="#1B81A5"/><g style="transform-origin:center;animation:whale 2s ease-in-out 0s infinite alternate"><path d="M147.5 45.7h22.9v23.4h11.5a50.1 50.1 0 0023.6-6.1 28.7 28.7 0 01-5.3-14.8c-.7-7.2.7-16.4 5.6-22l2.4-2.8 2.8 2.3a36.4 36.4 0 0114.4 23.1 35 35 0 0126.5 2.5l3.2 1.8-1.7 3.2C247 69 233.4 73 220.2 72.2c-19.8 49.3-63 72.6-115.2 72.6-27 0-51.8-10-65.9-34l-.2-.4-2-4.2a66.3 66.3 0 01-5.3-33.6l.3-3.5h19.6V45.7h22.8V23H120V0h27.5v45.7" fill="#364548"/><path d="M221.6 54.4c1.5-12-7.4-21.3-13-25.7-6.3 7.3-7.3 26.6 2.7 34.8a48 48 0 01-29.4 9.4H35.4a61.8 61.8 0 006 34l1.7 3.1a56.5 56.5 0 003.5 5.2c6 .4 11.5.5 16.6.4 10-.2 18.2-1.4 24.3-3.5a1.8 1.8 0 011.2 3.3l-2.6.8A76.4 76.4 0 0169 119h-.7a153 153 0 01-18.3 0h-.1C62 132.9 81 141 105 141c50.7 0 93.6-22.4 112.6-72.8 13.5 1.3 26.5-2.1 32.4-13.6a31.8 31.8 0 00-28.4-.2" fill="#22A0C8"/><path d="M221.6 54.4c1.5-12-7.4-21.3-13-25.7-6.3 7.3-7.3 26.6 2.7 34.8a48 48 0 01-29.4 9.4H44c-.5 19.3 6.6 33.9 19.2 42.7 10-.2 18.2-1.4 24.3-3.5a1.8 1.8 0 011.2 3.3l-2.6.8A80.4 80.4 0 0169 119l-.2-.2c17.2 8.8 42.2 8.8 70.9-2.2 32.1-12.3 62-35.9 82.9-62.8l-1 .5" fill="#37B1D9"/><path d="M35.6 88.2c1 6.7 3 13 5.8 18.8l1.7 3a56.4 56.4 0 003.5 5.2c6 .4 11.5.5 16.6.4 10-.2 18.2-1.4 24.3-3.5a1.8 1.8 0 011.2 3.3l-2.6.8A80.4 80.4 0 0169 119h-1a151 151 0 01-18.3 0c12.2 13.7 31.4 22 55.3 22 43.4 0 81.1-16.4 103-52.8H35.6" fill="#1B81A5"/><path d="M45.4 88.2a44 44 0 0017.8 27.4c10-.2 18.2-1.4 24.3-3.5a1.8 1.8 0 011.2 3.3l-2.6.8a81.6 81.6 0 01-17.3 2.8c17.2 8.8 42.1 8.7 70.8-2.3 17.3-6.7 34-16.6 49-28.5H45.4" fill="#1D91B4"/><path d="M55.3 49.5H75v19.9H55.3V49.5zm1.6 1.7h1.6v16.5h-1.6V51.2zm3 0h1.6v16.5h-1.6V51.2zm3 0h1.6v16.5h-1.6V51.2zm3 0h1.6v16.5h-1.6V51.2zm3 0h1.6v16.5h-1.6V51.2zm3 0h1.5v16.5H72V51.2zM78 26.7h20v19.8H78.1V26.7zm1.7 1.6h1.5v16.5h-1.5V28.3zm3 0h1.5v16.5h-1.6V28.3zm3 0h1.5v16.5h-1.6V28.3zm3 0h1.5v16.5h-1.6V28.3zm3 0h1.6v16.5h-1.7V28.3zm3 0h1.5v16.5h-1.6V28.3z" fill="#23A3C2"/><path d="M78.1 49.5H98v19.9H78.1V49.5zm1.7 1.7h1.5v16.5h-1.5V51.2zm3 0h1.5v16.5h-1.6V51.2zm3 0h1.5v16.5h-1.6V51.2zm3 0h1.5v16.5h-1.6V51.2zm3 0h1.6v16.5h-1.7V51.2zm3 0h1.5v16.5h-1.6V51.2z" fill="#34BBDE"/><path d="M101 49.5h19.8v19.9H101V49.5zm1.6 1.7h1.6v16.5h-1.6V51.2zm3 0h1.6v16.5h-1.6V51.2zm3 0h1.6v16.5h-1.6V51.2zm3 0h1.6v16.5h-1.6V51.2zm3 0h1.6v16.5h-1.6V51.2zm3 0h1.6v16.5h-1.6V51.2z" fill="#23A3C2"/><path d="M101 26.7h19.8v19.8H101V26.7zm1.6 1.6h1.6v16.5h-1.6V28.3zm3 0h1.6v16.5h-1.6V28.3zm3 0h1.6v16.5h-1.6V28.3zm3 0h1.6v16.5h-1.6V28.3zm3 0h1.6v16.5h-1.6V28.3zm3 0h1.6v16.5h-1.6V28.3zm6.3 21.2h19.8v19.9h-19.8V49.5zm1.6 1.7h1.6v16.5h-1.6V51.2zm3 0h1.6v16.5h-1.6V51.2zm3 0h1.6v16.5h-1.6V51.2zm3 0h1.6v16.5h-1.6V51.2zm3 0h1.6v16.5h-1.6V51.2zm3 0h1.5v16.5h-1.5V51.2z" fill="#34BBDE"/><path d="M123.9 26.7h19.8v19.8h-19.8V26.7zm1.6 1.6h1.6v16.5h-1.6V28.3zm3 0h1.6v16.5h-1.6V28.3zm3 0h1.6v16.5h-1.6V28.3zm3 0h1.6v16.5h-1.6V28.3zm3 0h1.6v16.5h-1.6V28.3zm3 0h1.5v16.5h-1.5V28.3z" fill="#23A3C2"/><path d="M123.9 3.8h19.8v19.8h-19.8V3.8zm1.6 1.7h1.6V22h-1.6V5.5zm3 0h1.6V22h-1.6V5.5zm3 0h1.6V22h-1.6V5.5zm3 0h1.6V22h-1.6V5.5zm3 0h1.6V22h-1.6V5.5zm3 0h1.5V22h-1.5V5.5z" fill="#34BBDE"/><path d="M146.7 49.5h19.8v19.9h-19.8V49.5zm1.7 1.7h1.5v16.5h-1.5V51.2zm3 0h1.5v16.5h-1.6V51.2zm3 0h1.5v16.5h-1.6V51.2zm3 0h1.5v16.5h-1.6V51.2zm3 0h1.6v16.5h-1.7V51.2zm3 0h1.5v16.5h-1.6V51.2z" fill="#23A3C2"/><path d="M96.7 101.5a5.5 5.5 0 110 11 5.5 5.5 0 010-11" fill="#D3ECEC"/><path d="M96.7 103c.5 0 1 .1 1.4.3a1.6 1.6 0 00.8 3c.6 0 1.1-.3 1.4-.8a4 4 0 11-3.6-2.5" fill="#364548"/><path d="M111.2 140.9a48.2 48.2 0 01-25-24.7c-5.1 1.4-11.1 2.3-18.2 2.7a149.7 149.7 0 01-19 0c12.5 12.4 27.7 22 56 22.1l6.2-.1" fill="#BDD9D7"/><path d="M91.2 125a47.5 47.5 0 01-5-8.8c-5.1 1.4-11.1 2.3-18.2 2.7 4.9 2.7 11.8 5 23.2 6" fill="#D3ECEC"/></g><path d="M0 90.2h254.3c-5.5-1.4-17.5-3.3-15.5-10.6-10 11.7-34.4 8.2-40.5 2.4-6.8 10-46.6 6.2-49.3-1.5-8.6 10-35 10-43.6 0-2.8 7.7-42.5 11.4-49.4 1.5-6.1 5.8-30.4 9.3-40.5-2.4 2 7.3-10 9.2-15.5 10.6" fill="#364548" style="animation:sea 1.7s ease 0s infinite alternate"/></g></svg>