<svg xmlns="http://www.w3.org/2000/svg" viewBox="0 0 512 512" fill="#6bf"><path d="M256 32A227 227 0 0032 262c0 101 64 187 153 218a18 18 0 004 0c8 0 12-6 12-11l-1-39a102 102 0 01-22 2c-44 0-53-33-53-33-11-27-25-34-25-34-20-14 0-14 1-14 23 2 35 24 35 24 11 19 26 25 39 25a63 63 0 0026-6c2-15 8-25 14-31-50-6-102-25-102-113 0-25 9-46 23-62-2-6-10-29 2-61a19 19 0 015 0c8 0 27 3 57 24a208 208 0 01112 0c30-21 48-24 57-24a19 19 0 015 0c12 32 4 55 2 61 14 16 23 37 23 62 0 88-53 107-103 113 8 7 16 21 16 43l-1 63c0 5 3 11 12 11a19 19 0 004 0c89-31 153-117 153-218 0-127-100-230-224-230z"/></svg>
