<svg xmlns="http://www.w3.org/2000/svg" viewBox="0 0 16 16" fill="#6bf"><path fill-rule="evenodd" d="M0 2.5A1.5 1.5 0 011.5 1h11A1.5 1.5 0 0114 2.5V13c0 .3 0 .7-.2 1h.7a.5.5 0 00.5-.5v-9a.5.5 0 011 0v9a1.5 1.5 0 01-1.5 1.5h-13A1.5 1.5 0 010 13.5v-11zM12 14c.4 0 .7-.2.9-.4l.1-.6V2.5a.5.5 0 00-.5-.5h-11a.5.5 0 00-.5.5v11c0 .3.2.5.5.5H12z"/><path d="M2 3h10v2H2V3zm0 3h4v3H2V6zm0 4h4v1H2v-1zm0 2h4v1H2v-1zm5-6h2v1H7V6zm3 0h2v1h-2V6zM7 8h2v1H7V8zm3 0h2v1h-2V8zm-3 2h2v1H7v-1zm3 0h2v1h-2v-1zm-3 2h2v1H7v-1zm3 0h2v1h-2v-1z"/></svg>
